<svg xmlns="http://www.w3.org/2000/svg" viewBox="0 0 1200 1200"><defs><style>.cls-1,.cls-2{fill:#fff;}.cls-2{opacity:0.43;}.cls-3{fill:#39d9c8;opacity:0.1;}.cls-4,.cls-5{fill:#39c9d8;}.cls-4{opacity:0.42;}</style></defs><title>Plan de travail 2035</title><g id="Effect"><path class="cls-1" d="M617.61,1028.36v-.44A420.22,420.22,0,0,0,1017.3,737.65l.42.13a420,420,0,0,1-400.11,290.58Z"/><path class="cls-2" d="M617.61,1031.66c-91.41,0-178.43-28.58-251.65-82.66A424.25,424.25,0,0,1,214.37,738.8l6.7-2.17a417.39,417.39,0,0,0,149.07,206.7c72,53.18,157.58,81.28,247.47,81.28Z"/><path class="cls-1" d="M1020.1,729.46a1.76,1.76,0,0,1-1.19-2.19h0a1.75,1.75,0,0,1,2.19-1.19h0a1.76,1.76,0,0,1,1.19,2.19h0a1.77,1.77,0,0,1-1.69,1.26h0A1.68,1.68,0,0,1,1020.1,729.46Zm3.39-11.87a1.76,1.76,0,0,1-1.26-2.15h0a1.77,1.77,0,0,1,2.16-1.26h0a1.77,1.77,0,0,1,1.25,2.16h0a1.76,1.76,0,0,1-1.7,1.31h0A1.74,1.74,0,0,1,1023.49,717.59Zm3-12a1.76,1.76,0,0,1-1.31-2.12h0a1.77,1.77,0,0,1,2.12-1.31h0a1.77,1.77,0,0,1,1.31,2.12h0a1.77,1.77,0,0,1-1.72,1.36h0A1.9,1.9,0,0,1,1026.52,705.63Zm2.69-12a1.77,1.77,0,0,1-1.38-2.08h0a1.76,1.76,0,0,1,2.08-1.38h0a1.77,1.77,0,0,1,1.37,2.08h0a1.76,1.76,0,0,1-1.73,1.41h0A2,2,0,0,1,1029.21,693.59Zm2.32-12.12a1.76,1.76,0,0,1-1.43-2h0a1.76,1.76,0,0,1,2-1.44h0a1.77,1.77,0,0,1,1.44,2h0a1.76,1.76,0,0,1-1.74,1.46h0A1.51,1.51,0,0,1,1031.53,681.47Zm2-12.19a1.75,1.75,0,0,1-1.49-2h0a1.77,1.77,0,0,1,2-1.5h0a1.78,1.78,0,0,1,1.5,2h0a1.76,1.76,0,0,1-1.74,1.51h0A1.14,1.14,0,0,1,1033.5,669.28Zm1.62-12.23a1.76,1.76,0,0,1-1.56-1.95h0a1.75,1.75,0,0,1,2-1.55h0a1.76,1.76,0,0,1,1.55,2h0a1.75,1.75,0,0,1-1.75,1.56h-.19Zm1.25-12.28a1.76,1.76,0,0,1-1.61-1.9h0a1.75,1.75,0,0,1,1.9-1.61h0a1.76,1.76,0,0,1,1.61,1.9h0a1.77,1.77,0,0,1-1.76,1.62h-.14Zm.89-12.31a1.75,1.75,0,0,1-1.66-1.85h0a1.76,1.76,0,0,1,1.85-1.67h0a1.75,1.75,0,0,1,1.66,1.86h0a1.77,1.77,0,0,1-1.77,1.66h-.09Zm.54-12.33a1.75,1.75,0,0,1-1.72-1.81h0a1.75,1.75,0,0,1,1.8-1.71h0a1.76,1.76,0,0,1,1.72,1.8h0a1.76,1.76,0,0,1-1.76,1.72h0Zm-1.6-14.1a1.76,1.76,0,0,1,1.76-1.76h0a1.76,1.76,0,0,1,1.77,1.75h0a1.76,1.76,0,0,1-1.76,1.77h0A1.77,1.77,0,0,1,1036.2,606Zm-.22-12.27a1.76,1.76,0,0,1,1.7-1.82h0a1.76,1.76,0,0,1,1.82,1.7h0a1.76,1.76,0,0,1-1.7,1.82h-.06A1.76,1.76,0,0,1,1036,593.76Zm-.58-12.27a1.76,1.76,0,0,1,1.65-1.87h0a1.76,1.76,0,0,1,1.86,1.65h0a1.74,1.74,0,0,1-1.65,1.86h-.11A1.75,1.75,0,0,1,1035.4,581.49Zm-.94-12.25h0a1.77,1.77,0,0,1,1.6-1.92h0a1.77,1.77,0,0,1,1.91,1.6h0a1.77,1.77,0,0,1-1.59,1.91h-.17A1.76,1.76,0,0,1,1034.46,569.24ZM1033.17,557a1.76,1.76,0,0,1,1.54-2h0a1.76,1.76,0,0,1,2,1.54h0a1.78,1.78,0,0,1-1.54,2h-.21A1.76,1.76,0,0,1,1033.17,557Zm-1.65-12.17a1.77,1.77,0,0,1,1.48-2h0a1.76,1.76,0,0,1,2,1.48h0a1.77,1.77,0,0,1-1.49,2h0l-.26,0h0A1.76,1.76,0,0,1,1031.52,544.85Zm-2-12.12a1.76,1.76,0,0,1,1.42-2.05h0a1.76,1.76,0,0,1,2,1.42h0a1.77,1.77,0,0,1-1.42,2h0a1.73,1.73,0,0,1-.32,0h0A1.76,1.76,0,0,1,1029.51,532.73Zm-2.36-12a1.76,1.76,0,0,1,1.36-2.08h0a1.75,1.75,0,0,1,2.09,1.36h0a1.74,1.74,0,0,1-1.36,2.08h0a1.47,1.47,0,0,1-.36,0h0A1.77,1.77,0,0,1,1027.15,520.7Zm-2.7-12a1.76,1.76,0,0,1,1.3-2.13h0a1.76,1.76,0,0,1,2.12,1.3h0a1.76,1.76,0,0,1-1.29,2.13h0a2,2,0,0,1-.42.05h0A1.75,1.75,0,0,1,1024.45,508.75Zm-3.06-11.87h0a1.76,1.76,0,0,1,1.23-2.17h0a1.78,1.78,0,0,1,2.17,1.24h0a1.76,1.76,0,0,1-1.24,2.16h0a1.49,1.49,0,0,1-.47.07h0A1.76,1.76,0,0,1,1021.39,496.88ZM1018,485.1a1.76,1.76,0,0,1,1.17-2.2h0a1.77,1.77,0,0,1,2.2,1.17h0a1.76,1.76,0,0,1-1.17,2.2h0a1.61,1.61,0,0,1-.52.08h0A1.76,1.76,0,0,1,1018,485.1Zm-3.76-11.67a1.76,1.76,0,0,1,1.11-2.23h0a1.75,1.75,0,0,1,2.23,1.1h0a1.78,1.78,0,0,1-1.11,2.24h0a1.77,1.77,0,0,1-.56.09h0A1.76,1.76,0,0,1,1014.22,473.43Zm-4.1-11.56a1.75,1.75,0,0,1,1-2.26h0a1.77,1.77,0,0,1,2.27,1h0a1.77,1.77,0,0,1-1,2.27h0a1.69,1.69,0,0,1-.62.11h0A1.76,1.76,0,0,1,1010.12,461.87Zm-4.44-11.43a1.77,1.77,0,0,1,1-2.3h0a1.78,1.78,0,0,1,2.3,1h0a1.77,1.77,0,0,1-1,2.3h0a1.69,1.69,0,0,1-.66.13h0A1.77,1.77,0,0,1,1005.68,450.44Zm-4.78-11.3a1.77,1.77,0,0,1,.91-2.33h0a1.76,1.76,0,0,1,2.32.91h0a1.76,1.76,0,0,1-.91,2.32h0a1.78,1.78,0,0,1-.71.15h0A1.76,1.76,0,0,1,1000.9,439.14ZM995.79,428a1.76,1.76,0,0,1,.84-2.35h0a1.76,1.76,0,0,1,2.35.84h0a1.75,1.75,0,0,1-.83,2.34h0a1.69,1.69,0,0,1-.75.18h0A1.79,1.79,0,0,1,995.79,428Zm-5.43-11a1.76,1.76,0,0,1,.76-2.37h0a1.76,1.76,0,0,1,2.37.76h0a1.76,1.76,0,0,1-.77,2.37h0a1.66,1.66,0,0,1-.8.2h0A1.76,1.76,0,0,1,990.36,417Zm-5.76-10.84h0a1.76,1.76,0,0,1,.69-2.39h0a1.77,1.77,0,0,1,2.4.69h0a1.75,1.75,0,0,1-.7,2.39h0a1.74,1.74,0,0,1-.85.22h0A1.76,1.76,0,0,1,984.6,406.14Zm-6.08-10.67a1.77,1.77,0,0,1,.63-2.41h0a1.76,1.76,0,0,1,2.41.63h0a1.77,1.77,0,0,1-.62,2.42h0a1.81,1.81,0,0,1-.9.24h0A1.76,1.76,0,0,1,978.52,395.47ZM972.14,385a1.76,1.76,0,0,1,.55-2.43h0a1.76,1.76,0,0,1,2.43.55h0a1.76,1.76,0,0,1-.55,2.43h0a1.71,1.71,0,0,1-.94.27h0A1.76,1.76,0,0,1,972.14,385Zm-6.69-10.29h0a1.76,1.76,0,0,1,.48-2.45h0a1.76,1.76,0,0,1,2.44.48h0a1.76,1.76,0,0,1-.48,2.45h0a1.76,1.76,0,0,1-1,.3h0A1.77,1.77,0,0,1,965.45,374.7Zm-7-10.1h0a1.74,1.74,0,0,1,.41-2.45h0a1.76,1.76,0,0,1,2.46.4h0a1.76,1.76,0,0,1-.42,2.46h0a1.75,1.75,0,0,1-1,.33h0A1.78,1.78,0,0,1,958.45,364.6Zm-7.28-9.88a1.76,1.76,0,0,1,.34-2.47h0a1.76,1.76,0,0,1,2.47.34h0a1.75,1.75,0,0,1-.34,2.46h0a1.7,1.7,0,0,1-1.06.36h0A1.78,1.78,0,0,1,951.17,354.72Zm-7.57-9.67a1.77,1.77,0,0,1,.26-2.48h0a1.78,1.78,0,0,1,2.49.26h0a1.77,1.77,0,0,1-.26,2.48h0a1.79,1.79,0,0,1-1.11.39h0A1.76,1.76,0,0,1,943.6,345.05Zm-7.85-9.45a1.75,1.75,0,0,1,.19-2.48h0a1.76,1.76,0,0,1,2.49.19h0a1.77,1.77,0,0,1-.2,2.49h0a1.77,1.77,0,0,1-1.14.42h0A1.75,1.75,0,0,1,935.75,335.6Zm-8.12-9.21a1.76,1.76,0,0,1,.11-2.49h0a1.77,1.77,0,0,1,2.49.12h0a1.75,1.75,0,0,1-.12,2.49h0a1.72,1.72,0,0,1-1.18.46h0A1.75,1.75,0,0,1,927.63,326.39Zm-8.4-9h0a1.77,1.77,0,0,1,0-2.49h0a1.76,1.76,0,0,1,2.49,0h0a1.76,1.76,0,0,1,0,2.5h0a1.79,1.79,0,0,1-1.22.49h0A1.77,1.77,0,0,1,919.23,317.42Zm-8.65-8.72a1.78,1.78,0,0,1,0-2.5h0a1.76,1.76,0,0,1,2.49,0h0a1.76,1.76,0,0,1,0,2.49h0a1.79,1.79,0,0,1-1.26.53h0A1.8,1.8,0,0,1,910.58,308.7Zm-8.9-8.47h0a1.77,1.77,0,0,1-.1-2.49h0a1.76,1.76,0,0,1,2.49-.1h0a1.76,1.76,0,0,1,.1,2.49h0a1.73,1.73,0,0,1-1.29.57h0A1.78,1.78,0,0,1,901.68,300.23ZM892.54,292h0a1.76,1.76,0,0,1-.18-2.49h0a1.77,1.77,0,0,1,2.49-.17h0a1.76,1.76,0,0,1,.17,2.49h0a1.74,1.74,0,0,1-1.33.6h0A1.73,1.73,0,0,1,892.54,292Zm-9.39-7.93a1.77,1.77,0,0,1-.24-2.49h0a1.76,1.76,0,0,1,2.48-.24h0a1.76,1.76,0,0,1,.24,2.48h0a1.73,1.73,0,0,1-1.36.65h0A1.77,1.77,0,0,1,883.15,284.09Zm-9.61-7.66a1.77,1.77,0,0,1-.31-2.48h0a1.75,1.75,0,0,1,2.47-.31h0a1.75,1.75,0,0,1,.31,2.47h0a1.74,1.74,0,0,1-1.39.69h0A1.74,1.74,0,0,1,873.54,276.43Zm-9.83-7.37a1.78,1.78,0,0,1-.39-2.47h0a1.77,1.77,0,0,1,2.46-.39h0a1.76,1.76,0,0,1,.38,2.46h0a1.74,1.74,0,0,1-1.42.73h0A1.81,1.81,0,0,1,863.71,269.06Z"/><path class="cls-2" d="M862.67,270.48a417.31,417.31,0,0,0-490.11,0l-4.15-5.7a424.36,424.36,0,0,1,498.41,0Z"/><path class="cls-1" d="M216.05,738.26h0a1.76,1.76,0,0,1,1.13-2.22h0a1.76,1.76,0,0,1,2.22,1.13h0a1.77,1.77,0,0,1-1.13,2.22h0a1.76,1.76,0,0,1-.55.09h0A1.76,1.76,0,0,1,216.05,738.26Zm-5.11-17a1.76,1.76,0,0,1,1.23-2.17h0a1.76,1.76,0,0,1,2.17,1.22h0a1.77,1.77,0,0,1-1.23,2.18h0a1.84,1.84,0,0,1-.47.06h0A1.77,1.77,0,0,1,210.94,721.31Zm-4.38-17.14a1.77,1.77,0,0,1,1.31-2.12h0a1.77,1.77,0,0,1,2.12,1.31h0a1.77,1.77,0,0,1-1.31,2.12h0a1.92,1.92,0,0,1-.41,0h0A1.76,1.76,0,0,1,206.56,704.17Zm-3.66-17.32a1.76,1.76,0,0,1,1.4-2.06h0a1.76,1.76,0,0,1,2.06,1.4h0a1.76,1.76,0,0,1-1.4,2.06h0a1.24,1.24,0,0,1-.33,0h0A1.76,1.76,0,0,1,202.9,686.85ZM200,669.4h0a1.76,1.76,0,0,1,1.49-2h0a1.76,1.76,0,0,1,2,1.49h0a1.77,1.77,0,0,1-1.49,2h0l-.26,0h0A1.77,1.77,0,0,1,200,669.4Zm-2.2-17.56a1.77,1.77,0,0,1,1.58-1.94h0a1.77,1.77,0,0,1,1.93,1.57h0a1.76,1.76,0,0,1-1.57,1.93h-.18A1.77,1.77,0,0,1,197.77,651.84Zm-1.46-17.64a1.77,1.77,0,0,1,1.66-1.87h0a1.77,1.77,0,0,1,1.87,1.66h0a1.76,1.76,0,0,1-1.65,1.86h-.11A1.78,1.78,0,0,1,196.31,634.2Zm-.72-17.68a1.76,1.76,0,0,1,1.73-1.8h0a1.76,1.76,0,0,1,1.79,1.73h0a1.76,1.76,0,0,1-1.72,1.8h0A1.77,1.77,0,0,1,195.59,616.52Zm1.73-15.9a1.77,1.77,0,0,1-1.73-1.8h0a1.76,1.76,0,0,1,1.8-1.72h0a1.76,1.76,0,0,1,1.73,1.8h0a1.76,1.76,0,0,1-1.77,1.72h0ZM198,583a1.75,1.75,0,0,1-1.65-1.87h0a1.76,1.76,0,0,1,1.86-1.65h0a1.76,1.76,0,0,1,1.65,1.87h0a1.77,1.77,0,0,1-1.76,1.66H198Zm1.38-17.56a1.77,1.77,0,0,1-1.57-1.94h0a1.76,1.76,0,0,1,1.93-1.57h0a1.77,1.77,0,0,1,1.58,1.93h0a1.77,1.77,0,0,1-1.76,1.58h-.18Zm2.12-17.5a1.76,1.76,0,0,1-1.49-2h0a1.77,1.77,0,0,1,2-1.49h0a1.77,1.77,0,0,1,1.49,2h0a1.77,1.77,0,0,1-1.74,1.51h0Zm2.85-17.42a1.76,1.76,0,0,1-1.41-2.06h0a1.76,1.76,0,0,1,2-1.4h0a1.76,1.76,0,0,1,1.41,2.06h0a1.76,1.76,0,0,1-1.73,1.44h0A1.24,1.24,0,0,1,204.33,530.53Zm3.58-17.27a1.77,1.77,0,0,1-1.32-2.12h0a1.76,1.76,0,0,1,2.11-1.32h0a1.77,1.77,0,0,1,1.32,2.12h0a1.77,1.77,0,0,1-1.72,1.36h0A1.81,1.81,0,0,1,207.91,513.26Zm4.31-17.11A1.77,1.77,0,0,1,211,494h0a1.76,1.76,0,0,1,2.17-1.23h0a1.76,1.76,0,0,1,1.23,2.17h0a1.77,1.77,0,0,1-1.7,1.29h0A1.84,1.84,0,0,1,212.22,496.15Zm5-16.91a1.77,1.77,0,0,1-1.13-2.22h0a1.75,1.75,0,0,1,2.22-1.13h0a1.75,1.75,0,0,1,1.13,2.21h0a1.75,1.75,0,0,1-1.67,1.22h0A1.75,1.75,0,0,1,217.24,479.24ZM223,462.56a1.77,1.77,0,0,1-1-2.27h0a1.77,1.77,0,0,1,2.27-1h0a1.75,1.75,0,0,1,1,2.26h0a1.75,1.75,0,0,1-1.65,1.15h0A1.87,1.87,0,0,1,223,462.56Zm6.43-16.42a1.77,1.77,0,0,1-.94-2.31h0a1.76,1.76,0,0,1,2.31-.94h0a1.76,1.76,0,0,1,.94,2.31h0a1.77,1.77,0,0,1-1.62,1.08h0A2.12,2.12,0,0,1,229.41,446.14ZM236.53,430a1.76,1.76,0,0,1-.84-2.34h0a1.76,1.76,0,0,1,2.35-.84h0a1.75,1.75,0,0,1,.84,2.34h0a1.75,1.75,0,0,1-1.59,1h0A1.72,1.72,0,0,1,236.53,430Zm7.8-15.81a1.77,1.77,0,0,1-.74-2.38h0a1.75,1.75,0,0,1,2.38-.74h0a1.76,1.76,0,0,1,.74,2.38h0a1.79,1.79,0,0,1-1.56.94h0A1.84,1.84,0,0,1,244.33,414.19Zm8.45-15.47a1.77,1.77,0,0,1-.64-2.41h0a1.77,1.77,0,0,1,2.41-.65h0a1.76,1.76,0,0,1,.64,2.41h0a1.76,1.76,0,0,1-1.53.88h0A1.75,1.75,0,0,1,252.78,398.72Zm9.1-15.11a1.75,1.75,0,0,1-.54-2.43h0a1.76,1.76,0,0,1,2.43-.54h0a1.76,1.76,0,0,1,.54,2.43h0a1.77,1.77,0,0,1-1.49.82h0A1.72,1.72,0,0,1,261.88,383.61Zm9.72-14.71a1.75,1.75,0,0,1-.44-2.45h0a1.76,1.76,0,0,1,2.45-.44h0a1.77,1.77,0,0,1,.44,2.46h0a1.76,1.76,0,0,1-1.45.75h0A1.68,1.68,0,0,1,271.6,368.9Zm10.32-14.28a1.77,1.77,0,0,1-.33-2.47h0a1.76,1.76,0,0,1,2.47-.34h0a1.77,1.77,0,0,1,.33,2.47h0a1.74,1.74,0,0,1-1.4.7h0A1.79,1.79,0,0,1,281.92,354.62Zm10.92-13.84a1.77,1.77,0,0,1-.24-2.49h0a1.77,1.77,0,0,1,2.49-.23h0a1.76,1.76,0,0,1,.23,2.48h0a1.76,1.76,0,0,1-1.36.64h0A1.75,1.75,0,0,1,292.84,340.78Zm11.48-13.38a1.77,1.77,0,0,1-.13-2.49h0a1.77,1.77,0,0,1,2.49-.13h0a1.78,1.78,0,0,1,.13,2.5h0a1.78,1.78,0,0,1-1.31.58h0A1.74,1.74,0,0,1,304.32,327.4Zm12-12.88a1.75,1.75,0,0,1,0-2.49h0a1.75,1.75,0,0,1,2.49,0h0a1.77,1.77,0,0,1,0,2.49h0a1.76,1.76,0,0,1-1.26.53h0A1.74,1.74,0,0,1,316.35,314.52Zm12.55-12.37a1.76,1.76,0,0,1,.08-2.49h0a1.77,1.77,0,0,1,2.49.08h0a1.76,1.76,0,0,1-.08,2.49h0a1.75,1.75,0,0,1-1.2.48h0A1.77,1.77,0,0,1,328.9,302.15ZM342,290.32a1.77,1.77,0,0,1,.19-2.49h0a1.76,1.76,0,0,1,2.48.19h0a1.77,1.77,0,0,1-.18,2.49h0a1.81,1.81,0,0,1-1.15.42h0A1.77,1.77,0,0,1,342,290.32Zm13.54-11.27a1.77,1.77,0,0,1,.29-2.48h0a1.74,1.74,0,0,1,2.47.29h0a1.75,1.75,0,0,1-.28,2.47h0a1.75,1.75,0,0,1-1.1.38h0A1.78,1.78,0,0,1,355.5,279.05Z"/><circle class="cls-3" cx="617.61" cy="611.52" r="272.8"/><path class="cls-1" d="M611.48,1075h-1l.18-12.34,1,0Zm35.69-.88-.77-12.32,1-.06.81,12.31Zm-72.33-1-1-.09,1.15-12.29,1,.09Zm108.84-2.73-1.75-12.21,1-.14,1.76,12.21Zm-145.23-2.06-1-.17,2.11-12.15,1,.16Zm181.33-4.56-2.71-12,.95-.22,2.72,12Zm-217.22-3.1-1-.25,3.08-11.94.93.24Zm252.68-6.38-3.67-11.78.93-.29,3.68,11.77Zm-287.85-4.12-.94-.32,4-11.67.93.32ZM789.83,1042l-4.59-11.45.9-.36,4.61,11.44Zm-356.7-5.12-.91-.4,4.93-11.3.9.39ZM823.31,1027l-5.49-11.05.87-.43,5.5,11ZM400,1020.87l-.87-.47,5.82-10.88.86.46Zm455.44-11.48-6.31-10.6.81-.49,6.37,10.57Zm-487.13-7-.86-.55,6.69-10.37.8.51Zm517.83-13-7.13-10.06.77-.56,7.18,10Zm-548-7.95-.78-.6,7.46-9.82.78.59Zm577-14.49-7.91-9.48.73-.61,8,9.44Zm-605.38-8.8-.74-.66,8.22-9.2.72.64Zm632.56-15.88-8.64-8.8.69-.68,8.66,8.78Zm-659-9.56-.7-.72,8.93-8.52.66.69Zm684.17-17.17-9.32-8.1.64-.73,9.33,8.07ZM259,905.17l-.63-.77,9.56-7.79.61.75Zm731.52-18.36-9.94-7.33.59-.79,9.93,7.32ZM236.88,875.9l-.57-.82,10.15-7,.55.79Zm774.28-19.45-10.46-6.53.51-.83,10.48,6.51ZM217.13,845l-.49-.85,10.66-6.2.49.84Zm812.22-20.43-10.95-5.7.44-.85,11,5.66ZM199.9,812.6l-.43-.9,11.13-5.32.42.86Zm845-21.31-11.36-4.8.37-.9,11.38,4.77ZM185.3,779l-.36-.93,11.52-4.42.35.9Zm872.55-22.09L1046.13,753l.3-.94,11.73,3.85ZM173.41,744.24l-.28-1L185,739.79l.27.92ZM1068,721.58l-12-2.91.23-.95,12,2.9Zm-903.62-12.9-.21-1,12.07-2.54.21.94Zm910.88-23.08-12.18-2,.15-.95,12.19,1.92Zm-917.1-13.09-.13-1,12.23-1.58.13.95Zm921.48-23.35-12.3-1,.08-1,12.3,1ZM154.76,636l0-1,12.32-.63.05,1Zm926.34-23.44-12.34,0v-1h12.34Zm-12.47-12,0-1,12.34-.34,0,1Zm-902-.94-12.33-.34,0-1,12.34.33Zm899.76-34.72-.1-1,12.27-1.29.1,1Zm-897.44-.94-12.27-1.28.11-1L169.05,563Zm892.39-34.41-.18-1,12.13-2.25.18,1Zm-887.26-.94-12.13-2.25.18-1,12.13,2.28Zm879.42-33.91-.26-.94,11.92-3.21.25,1ZM182,493.76l-11.92-3.21.27-1,11.9,3.25Zm860.9-33.2-.32-.9,11.61-4.16.34.94Zm-850.23-.89L181,455.52l.34-.94,11.6,4.18Zm837-32.24-.39-.87,11.25-5.07.4.91ZM206,426.51l-11.25-5.07.42-.92,11.23,5.11Zm807.73-31.06-.46-.84,10.81-5.95.48.88ZM222,394.52l-10.81-5.95.47-.87,10.81,6ZM995.4,364.83l-.53-.81,10.31-6.78.54.83Zm-755-.94-10.32-6.77.55-.84,10.3,6.81Zm734.24-28.15-.59-.77,9.74-7.57.61.78Zm-713.44-.9-9.73-7.58.6-.78,9.73,7.59Zm690.49-26.48-.65-.71,9.11-8.32.67.73Zm-667.46-.85-9.11-8.32.68-.74,9.08,8.35Zm642.41-24.64-.71-.67,8.45-9,.72.67Zm-617.29-.79-8.45-9,.74-.69,8.4,9Zm590.32-22.66-.75-.6,7.69-9.64.79.63Zm-563.3-.71-7.7-9.64.78-.62,7.67,9.66ZM871,238.18l-.8-.54,6.91-10.23.83.57Zm-505.79-.63-6.91-10.22.83-.56L366,237Zm475.45-18.29-.83-.47,6.08-10.74.88.5Zm-445.11-.53L389.45,208l.86-.48,6.06,10.75ZM808.9,202.81l-.87-.41,5.2-11.18.91.42Zm-381.64-.44L422,191.19l.91-.41L428.14,202ZM776,188.94l-.92-.34L779.35,177l.92.34Zm-315.78-.34L455.87,177l.93-.35,4.29,11.57ZM742,177.74l-.94-.26,3.38-11.87.94.27Zm-247.9-.26-3.38-11.87,1-.27,3.35,11.88Zm213.19-8.19-1-.19,2.41-12.1,1,.19Zm-178.47-.19L526.44,157l1-.19,2.39,12.1Zm143.2-5.48-1-.11,1.45-12.26,1,.12Zm-107.92-.11-1.45-12.25,1-.12,1.42,12.26Zm72.32-2.75-1,0,.47-12.33,1,0Zm-36.71,0-.48-12.33,1,0,.46,12.33Z"/><path class="cls-1" d="M624,999.56l-.43-24.67h.78l.45,24.67Zm-14.63,0-.85,0,.58-24.67.77,0Zm30-.52-1.35-24.64.76,0L640.27,999Zm-45.45-.1-.83-.06,1.52-24.62.79,0Zm60.85-1.06-2.33-24.56.78-.08,2.38,24.56Zm-76.25-.18-.83-.08L580.25,973l.78.08Zm91.61-1.59-3.33-24.45.79-.1L671,996Zm-106.93-.24-.85-.12,3.5-24.43.75.11Zm122.17-2.13-4.26-24.31.75-.13,4.35,24.29ZM548,993.39l-.84-.16L551.63,969l.75.13Zm152.61-2.67-5.27-24.11.78-.17,5.29,24.11Zm-167.76-.39-.82-.19,5.43-24.07.76.17Zm182.76-3.19-6.18-23.9.73-.19,6.28,23.87Zm-197.76-.47-.83-.22,6.41-23.83.74.19Zm212.64-3.73-7.15-23.61.74-.23,7.22,23.6ZM503,982.4l-.8-.24,7.33-23.57.75.24Zm242.22-4.25-8.14-23.29.75-.27,8.15,23.3Zm-256.92-.61-.82-.29L495.77,954l.71.25Zm271.38-4.75-9-23,.71-.28,9.1,22.94Zm-285.89-.71-.79-.32,9.22-22.88.71.28Zm300.14-5.22-10-22.58.73-.32,10,22.57Zm-314.41-.81-.76-.34,10.1-22.51.72.32Zm328.38-5.68L777,938.21l.7-.35L788.61,960Zm-342.39-.92-.74-.37,11-22.09.71.36Zm356.07-6.12L789.88,931.6l.67-.37,11.75,21.7Zm-369.8-1-.73-.4,11.89-21.62.69.38ZM815,945.73l-12.59-21.22.68-.4,12.62,21.2Zm-396.66-1.11-.7-.42L430.34,923l.69.41Zm409.75-7-13.37-20.74.63-.41,13.45,20.69Zm-422.85-1.22-.7-.46,13.55-20.62.65.42ZM840.88,929l-14.17-20.2.61-.44,14.26,20.15Zm-448.41-1.33-.65-.47,14.34-20.08.66.47Zm460.84-7.8-15-19.63.6-.46,15,19.57Zm-473.24-1.42-.68-.53,15.21-19.43.59.46Zm485.33-8.22-15.76-19,.59-.49,15.81,19Zm-497.34-1.48-.68-.57,16-18.8.56.47Zm509-8.61-16.48-18.36.56-.51,16.55,18.3Zm-520.64-1.56-.62-.57,16.65-18.21.57.52Zm531.92-9-17.22-17.67.57-.55L888.94,889ZM345.21,888l-.6-.6L362,869.84l.54.53Zm554-9.35-17.89-17,.54-.56,17.93,17Zm-564.76-1.7-.58-.63,18.06-16.8.52.55Zm575.16-9.71L891.06,850.9l.5-.57,18.6,16.22Zm-585.5-1.77-.55-.63,18.71-16.1.5.59Zm595.47-10.06-19.19-15.52.5-.61,19.2,15.49Zm-605.33-1.79-.53-.66L333,837.55l.48.6ZM929,843.16,909.25,828.4l.46-.61,19.83,14.68Zm-624.2-1.85-.5-.67,19.92-14.57.46.62ZM938,830.58l-20.35-14,.43-.62,20.4,13.87Zm-642.08-1.87-.48-.71L316,814.25l.42.63ZM946.5,817.65l-20.88-13.14.4-.65L947,816.93Zm-658.95-1.88-.44-.72,21-12.95.41.65Zm666.93-11.4-21.42-12.26.4-.7,21.42,12.26Zm-674.8-1.88-.4-.7,21.49-12.14.39.7Zm682.21-11.67L940,779.38l.35-.67,21.91,11.35ZM272.36,789l-.38-.75,22-11.25.35.68Zm696.42-12-22.31-10.55.33-.69,22.35,10.46Zm-703.2-1.85-.36-.78L287.62,764l.32.68Zm709.51-12.25-22.68-9.72.28-.67L975.44,762ZM259.36,761l-.33-.78,22.79-9.46.3.7Zm721.5-12.56-23.08-8.74.27-.72,23.11,8.66ZM253.7,746.68l-.3-.81,23.17-8.51.26.71ZM986,733.82l-23.42-7.76.25-.77,23.43,7.76Zm-737.43-1.75-.26-.78,23.48-7.61.24.76Zm742-13-23.71-6.82.22-.77,23.72,6.81Zm-746.5-1.76-.23-.81,23.77-6.64.21.73Zm750.47-13.15-24-5.91.18-.74,24,5.83Zm-754.37-1.8-.19-.79,24-5.74.19.78ZM998,689.07l-24.18-4.93.15-.75,24.2,4.84ZM236.9,687.24l-.15-.79L261,681.7l.16.79Zm763.83-13.37-24.36-4,.12-.74,24.37,3.85Zm-766.52-1.8-.13-.85,24.39-3.76.12.75Zm768.68-13.51-24.5-3,.09-.75,24.51,2.87Zm-770.76-1.8-.1-.85,24.52-2.78.09.76Zm772.3-13.57-24.59-2,.06-.81,24.6,2Zm-773.78-1.81-.07-.85,24.62-1.79.05.75Zm774.72-13.61-24.65-1,0-.8,24.66,1ZM229.78,626l0-.84,24.66-.81,0,.75Zm775.93-13.58L981,612.28v-.76h24.68ZM254.19,610.6l-24.67-.09v-.81l24.68.09Zm726.66-10.86,0-.8,24.66-.81,0,.81Zm-726.34-3.65-24.65-1,0-.84,24.66,1.06ZM980.1,585.26l-.06-.76,24.61-1.79.07.84Zm-724.7-3.6-24.6-2,.07-.85,24.59,2.06Zm723.38-10.8-.08-.76,24.52-2.78.09.85Zm-721.92-3.59-24.5-2.95.1-.85,24.49,3Zm720-10.75-.11-.75,24.38-3.76.13.84Zm-718-3.56L234.53,549l.13-.85,24.35,4Zm715.56-10.68-.15-.75,24.22-4.75.16.84Zm-713-3.54-24.18-4.93.17-.84,24.16,5Zm709.95-10.59-.19-.79,24-5.64.19.78Zm-706.79-3.51-24-5.91.2-.79,23.95,5.92ZM967.83,514.1l-.2-.72,23.77-6.64.23.83Zm-699.46-3.46-23.71-6.82.23-.81,23.7,6.9Zm695.32-10.36-.23-.73,23.47-7.62.26.81Zm-691-3.45-23.43-7.77.29-.85,23.37,7.94ZM959,486.58l-.26-.71,23.16-8.53.29.81Zm-681.49-3.4-23.08-8.74.29-.76,23.08,8.75Zm676.26-10.05-.31-.75L976.26,463l.31.75ZM282.9,469.71l-22.72-9.64.34-.79L283.19,469ZM948,459.88l-.32-.69,22.4-10.34.35.76Zm-659.17-3.39-22.3-10.55.36-.77,22.27,10.62ZM941.7,446.9l-.34-.67,22-11.25.39.76Zm-646.43-3.38-21.86-11.45.37-.71,21.86,11.44Zm639.63-9.34-.37-.66L956,421.39l.42.74Zm-632.66-3.39-21.41-12.27.43-.73,21.36,12.34Zm625.35-9.08-.4-.64,21-13,.45.73Zm-617.9-3.31-20.88-13.15.44-.69,20.87,13.16Zm610.12-8.82-.45-.67,20.49-13.75.45.67Zm-602.16-3.29-20.35-14,.48-.71,20.3,14Zm593.88-8.56-.47-.64L931,382.53l.48.66Zm-585.46-3.22-19.78-14.76.49-.66,19.76,14.79Zm576.7-8.31-.46-.59,19.31-15.36.53.67ZM335,383.07l-19.19-15.51.55-.68,19.1,15.62Zm558.64-8-.53-.61,18.72-16.07.53.61Zm-549.33-3-18.53-16.29.54-.62,18.51,16.31ZM884,364.26l-.52-.55,18-16.86.58.63ZM354,361.33l-17.87-17,.56-.58,17.87,17Zm519.89-7.47-.54-.53,17.34-17.56.6.6ZM364.21,351,347,333.35l.64-.62,17.11,17.78Zm499.23-7.16-.57-.53,16.67-18.19.62.56Zm-488.68-2.71-16.48-18.36.61-.55,16.46,18.39Zm477.85-6.86-.6-.51,15.93-18.85.63.54ZM385.7,331.7,370,312.7l.64-.53,15.71,19Zm455.69-6.55-.63-.5L856,305.2l.63.5ZM397,322.68l-15-19.59.69-.53,14.9,19.68Zm432.78-6.24-.62-.45,14.37-20.05.69.49Zm-421.15-2.3L394.47,294l.66-.47,14.18,20.2Zm409.25-5.92-.66-.43,13.58-20.61.68.46Zm-397.27-2.16-13.37-20.74.69-.44,13.35,20.75Zm385.07-5.57-.72-.43,12.76-21.12.67.4Zm-372.78-2-12.55-21.25.71-.42,12.52,21.27Zm360.17-5.26-.65-.37,11.88-21.62.77.42Zm-347.61-1.84-11.67-21.73.7-.38L446.19,291Zm334.82-4.9-.69-.35,11-22.09.76.38Zm-321.95-1.7L447.49,262.6l.76-.37L459,284.43Zm308.87-4.54-.72-.32,10.14-22.5.75.34Zm-295.79-1.53-9.95-22.58.76-.33,9.9,22.6Zm282.47-4.18-.73-.29,9.21-22.89.78.31Zm-269.17-1.35-9-23,.79-.31,8.94,23Zm255.63-3.81-.76-.27,8.31-23.24.77.28ZM498.3,268.13l-8.11-23.3.8-.28,8,23.33Zm228.3-3.41-.76-.24,7.36-23.55.8.25Zm-214.54-1.06-7.18-23.61.81-.24,7.1,23.63Zm200.66-3-.76-.21,6.4-23.83.8.22ZM526,259.75l-6.19-23.89.81-.21,6.13,23.91Zm172.71-2.58-.74-.17,5.42-24.07.84.19ZM540,256.4l-5.25-24.12.81-.17,5.2,24.12Zm144.47-2.16-.76-.14,4.48-24.27.82.16Zm-130.29-.63L550,229.3l.81-.14L555,253.47Zm116-1.73-.76-.11L673,227.34l.85.12Zm-101.72-.49-3.31-24.46.84-.11,3.23,24.46Zm87.39-1.3-.78-.08,2.51-24.55.82.09Zm-73-.35-2.33-24.57.82-.08,2.29,24.57Zm58.59-.87-.76-.05,1.52-24.63.85.06Zm-44.17-.21L596,224l.83-.05,1.3,24.64Zm29.7-.44-.76,0,.58-24.67.85,0Zm-15.22-.08-.41-24.67h.85l.32,24.67Z"/><path class="cls-4" d="M545.91,718.78c-75-50.11-138.12-108.35-177.66-164C349,527.7,336.4,502.7,330.76,480.49c-5.85-23-3.9-42.08,5.79-56.58s26.52-23.6,50-27c22.68-3.31,50.6-1.24,83,6.16,66.56,15.21,144.53,51.17,219.56,101.28l-.25.36c-75-50.07-152.9-86-219.41-101.21-32.32-7.38-60.19-9.46-82.82-6.16-23.39,3.41-40.12,12.44-49.73,26.83s-11.55,33.32-5.73,56.23c5.62,22.16,18.21,47.11,37.41,74.14,39.52,55.61,102.58,113.82,177.56,163.89Z"/><path class="cls-5" d="M826.32,828.22c-17.86,0-38.28-2.56-61-7.74-66.61-15.22-144.64-51.21-219.7-101.34l.73-1.1c74.94,50.05,152.81,86,219.27,101.15,66.24,15.14,113.16,7.86,132.09-20.49s7.68-74.46-31.68-129.86C826.59,613.27,763.57,555.1,688.64,505.06l.73-1.1c75.07,50.13,138.21,108.42,177.78,164.12,39.71,55.87,51,102.52,31.71,131.36C886.13,818.49,861.11,828.22,826.32,828.22Z"/><path class="cls-4" d="M652.69,736.19l-.43-1.52C831,684.22,960.87,588,941.72,520.07c-9.25-32.75-51.58-54.12-119.21-60.17-67.89-6.07-153,4.07-239.73,28.53l-.43-1.52c86.89-24.52,172.23-34.67,240.3-28.58,68.33,6.11,111.16,27.88,120.59,61.31S927.55,594,872.49,634.94C817.64,675.72,739.58,711.67,652.69,736.19Z"/><path class="cls-5" d="M290.87,703.73c-9.55-33.85,15.7-75.16,71.1-116.35,54.94-40.84,133.11-76.85,220.12-101.4l.95,3.39c-86.6,24.44-164.36,60.25-219,100.84-54.14,40.25-78.93,80.22-69.81,112.56Z"/><path class="cls-5" d="M452.82,769.23c-14.11,0-27.7-.57-40.67-1.73-69.54-6.22-113.22-28.7-123-63.29l6.79-1.92c4.43,15.72,17,28.78,37.31,38.81,20.13,9.94,46.88,16.46,79.5,19.38,67.56,6,152.35-4.06,238.75-28.44l1.91,6.78C582.77,758.76,513.1,769.23,452.82,769.23Z"/><path class="cls-5" d="M685.92,720.63a1.75,1.75,0,0,1,.6-2.42h0a1.76,1.76,0,0,1,2.42.61h0a1.76,1.76,0,0,1-.61,2.42h0a1.79,1.79,0,0,1-.91.25h0A1.76,1.76,0,0,1,685.92,720.63Zm10.54-6.4a1.77,1.77,0,0,1,.57-2.43h0a1.77,1.77,0,0,1,2.43.57h0a1.77,1.77,0,0,1-.57,2.43h0a1.84,1.84,0,0,1-.93.26h0A1.78,1.78,0,0,1,696.46,714.23Zm10.46-6.56a1.77,1.77,0,0,1,.53-2.43h0a1.78,1.78,0,0,1,2.44.53h0a1.77,1.77,0,0,1-.54,2.44h0a1.72,1.72,0,0,1-.94.28h0A1.77,1.77,0,0,1,706.92,707.67ZM717.28,701a1.77,1.77,0,0,1,.51-2.45h0a1.76,1.76,0,0,1,2.44.51h0a1.76,1.76,0,0,1-.51,2.44h0a1.77,1.77,0,0,1-1,.29h0A1.77,1.77,0,0,1,717.28,701Zm10.27-6.85a1.77,1.77,0,0,1,.47-2.45h0a1.78,1.78,0,0,1,2.45.47h0a1.76,1.76,0,0,1-.47,2.45h0a1.73,1.73,0,0,1-1,.31h0A1.78,1.78,0,0,1,727.55,694.13Zm10.17-7a1.75,1.75,0,0,1,.43-2.45h0a1.75,1.75,0,0,1,2.45.43h0a1.75,1.75,0,0,1-.43,2.45h0a1.73,1.73,0,0,1-1,.32h0A1.77,1.77,0,0,1,737.72,687.14ZM747.79,680a1.76,1.76,0,0,1,.39-2.46h0a1.77,1.77,0,0,1,2.46.39h0a1.77,1.77,0,0,1-.39,2.47h0a1.8,1.8,0,0,1-1,.33h0A1.74,1.74,0,0,1,747.79,680Zm10-7.29a1.76,1.76,0,0,1,.35-2.47h0a1.77,1.77,0,0,1,2.47.36h0a1.77,1.77,0,0,1-.36,2.47h0a1.72,1.72,0,0,1-1.05.35h0A1.72,1.72,0,0,1,757.75,672.71Zm9.84-7.44a1.76,1.76,0,0,1,.32-2.47h0a1.75,1.75,0,0,1,2.47.32h0a1.77,1.77,0,0,1-.32,2.47h0A1.79,1.79,0,0,1,769,666h0A1.76,1.76,0,0,1,767.59,665.27Zm9.72-7.6a1.77,1.77,0,0,1,.28-2.48h0a1.77,1.77,0,0,1,2.48.28h0a1.76,1.76,0,0,1-.28,2.48h0a1.73,1.73,0,0,1-1.1.38h0A1.76,1.76,0,0,1,777.31,657.67Zm9.6-7.75a1.77,1.77,0,0,1,.24-2.49h0a1.77,1.77,0,0,1,2.48.24h0a1.76,1.76,0,0,1-.24,2.48h0a1.74,1.74,0,0,1-1.12.41h0A1.78,1.78,0,0,1,786.91,649.92Zm9.47-7.92a1.77,1.77,0,0,1,.19-2.49h0a1.77,1.77,0,0,1,2.49.2h0a1.76,1.76,0,0,1-.2,2.48h0a1.74,1.74,0,0,1-1.15.42h0A1.74,1.74,0,0,1,796.38,642Zm9.32-8.08a1.79,1.79,0,0,1,.15-2.5h0a1.78,1.78,0,0,1,2.49.15h0a1.76,1.76,0,0,1-.15,2.49h0a1.74,1.74,0,0,1-1.17.45h0A1.78,1.78,0,0,1,805.7,633.92Zm9.18-8.26a1.76,1.76,0,0,1,.1-2.49h0a1.76,1.76,0,0,1,2.49.1h0a1.76,1.76,0,0,1-.1,2.49h0a1.78,1.78,0,0,1-1.2.47h0A1.75,1.75,0,0,1,814.88,625.66Zm9-8.43a1.78,1.78,0,0,1,.05-2.5h0a1.76,1.76,0,0,1,2.49.06h0a1.76,1.76,0,0,1,0,2.49h0a1.79,1.79,0,0,1-1.22.49h0A1.75,1.75,0,0,1,823.89,617.23Zm8.84-8.62a1.76,1.76,0,0,1,0-2.49h0a1.77,1.77,0,0,1,2.49,0h0a1.78,1.78,0,0,1,0,2.5h0a1.79,1.79,0,0,1-1.25.51h0A1.75,1.75,0,0,1,832.73,608.61Zm8.64-8.81a1.76,1.76,0,0,1-.06-2.49h0a1.76,1.76,0,0,1,2.49-.06h0a1.76,1.76,0,0,1,.06,2.49h0a1.74,1.74,0,0,1-1.28.55h0A1.74,1.74,0,0,1,841.37,599.8Zm8.43-9a1.78,1.78,0,0,1-.12-2.5h0a1.77,1.77,0,0,1,2.49-.12h0a1.76,1.76,0,0,1,.12,2.49h0a1.75,1.75,0,0,1-1.31.58h0A1.8,1.8,0,0,1,849.8,590.8Zm8.21-9.23a1.75,1.75,0,0,1-.19-2.48h0a1.75,1.75,0,0,1,2.48-.19h0a1.77,1.77,0,0,1,.19,2.49h0a1.75,1.75,0,0,1-1.34.62h0A1.73,1.73,0,0,1,858,581.57Zm7.94-9.44a1.76,1.76,0,0,1-.26-2.48h0a1.75,1.75,0,0,1,2.48-.26h0a1.77,1.77,0,0,1,.26,2.48h0a1.76,1.76,0,0,1-1.37.65h0A1.79,1.79,0,0,1,866,572.13Zm7.65-9.68a1.77,1.77,0,0,1-.34-2.47h0a1.76,1.76,0,0,1,2.46-.35h0a1.76,1.76,0,0,1,.35,2.47h0a1.76,1.76,0,0,1-1.41.7h0A1.75,1.75,0,0,1,873.6,562.45Zm7.32-9.94a1.78,1.78,0,0,1-.44-2.46h0a1.77,1.77,0,0,1,2.46-.43h0a1.76,1.76,0,0,1,.43,2.46h0a1.78,1.78,0,0,1-1.44.75h0A1.78,1.78,0,0,1,880.92,552.51Zm6.92-10.21a1.76,1.76,0,0,1-.53-2.44h0a1.75,1.75,0,0,1,2.43-.53h0a1.76,1.76,0,0,1,.54,2.43h0a1.75,1.75,0,0,1-1.49.81h0A1.85,1.85,0,0,1,887.84,542.3Zm6.47-10.51a1.76,1.76,0,0,1-.65-2.4h0a1.77,1.77,0,0,1,2.41-.66h0a1.77,1.77,0,0,1,.65,2.41h0a1.76,1.76,0,0,1-1.53.88h0A1.75,1.75,0,0,1,894.31,531.79ZM900.23,521a1.78,1.78,0,0,1-.79-2.37h0a1.77,1.77,0,0,1,2.37-.79h0a1.78,1.78,0,0,1,.79,2.37h0a1.77,1.77,0,0,1-1.58,1h0A1.86,1.86,0,0,1,900.23,521Zm5.25-11.17a1.76,1.76,0,0,1-1-2.3h0a1.76,1.76,0,0,1,2.31-.95h0a1.76,1.76,0,0,1,.95,2.3h0a1.75,1.75,0,0,1-1.63,1.09h0A1.79,1.79,0,0,1,905.48,509.8Zm-355.16-8a1.77,1.77,0,0,1,.61-2.42h0a1.75,1.75,0,0,1,2.41.62h0a1.75,1.75,0,0,1-.62,2.41h0a1.72,1.72,0,0,1-.89.25h0A1.78,1.78,0,0,1,550.32,501.76Zm359.55-3.48a1.76,1.76,0,0,1-1.15-2.21h0a1.77,1.77,0,0,1,2.22-1.15h0a1.76,1.76,0,0,1,1.15,2.21h0a1.78,1.78,0,0,1-1.69,1.23h0A1.63,1.63,0,0,1,909.87,498.28ZM561,495.51a1.76,1.76,0,0,1,.65-2.41h0a1.78,1.78,0,0,1,2.41.65h0a1.77,1.77,0,0,1-.65,2.41h0a1.77,1.77,0,0,1-.88.24h0A1.77,1.77,0,0,1,561,495.51Zm10.73-6.1a1.75,1.75,0,0,1,.68-2.39h0a1.76,1.76,0,0,1,2.4.68h0a1.78,1.78,0,0,1-.68,2.4h0a1.8,1.8,0,0,1-.86.22h0A1.76,1.76,0,0,1,571.69,489.41Zm341.48-3a1.76,1.76,0,0,1-1.37-2.08h0a1.76,1.76,0,0,1,2.08-1.38h0a1.76,1.76,0,0,1,1.37,2.08h0a1.76,1.76,0,0,1-1.73,1.41h0Zm-330.67-3a1.76,1.76,0,0,1,.71-2.38h0a1.76,1.76,0,0,1,2.39.71h0a1.77,1.77,0,0,1-.71,2.39h0a1.8,1.8,0,0,1-.84.21h0A1.77,1.77,0,0,1,582.5,483.46Zm10.89-5.79a1.77,1.77,0,0,1,.75-2.38h0a1.77,1.77,0,0,1,2.38.75h0a1.77,1.77,0,0,1-.75,2.38h0a1.83,1.83,0,0,1-.81.2h0A1.78,1.78,0,0,1,593.39,477.67Zm321.66-3.43a1.78,1.78,0,0,1-1.66-1.87h0a1.77,1.77,0,0,1,1.87-1.65h0a1.76,1.76,0,0,1,1.65,1.86h0a1.77,1.77,0,0,1-1.77,1.66h-.1ZM604.37,472a1.76,1.76,0,0,1,.78-2.37h0a1.77,1.77,0,0,1,2.37.78h0a1.78,1.78,0,0,1-.78,2.37h0a1.76,1.76,0,0,1-.79.19h0A1.77,1.77,0,0,1,604.37,472Zm11-5.48a1.78,1.78,0,0,1,.82-2.36h0a1.78,1.78,0,0,1,2.36.82h0a1.77,1.77,0,0,1-.82,2.36h0a1.76,1.76,0,0,1-.77.17h0A1.77,1.77,0,0,1,615.42,466.55Zm11.14-5.32a1.76,1.76,0,0,1,.86-2.34h0a1.76,1.76,0,0,1,2.34.85h0a1.77,1.77,0,0,1-.86,2.35h0a1.76,1.76,0,0,1-.74.16h0A1.77,1.77,0,0,1,626.56,461.23Zm286.52-.86a1.78,1.78,0,0,1,1.55-2h0a1.76,1.76,0,0,1,2,1.54h0a1.75,1.75,0,0,1-1.54,2h0l-.21,0h0A1.77,1.77,0,0,1,913.08,460.37Zm-275.3-4.28a1.76,1.76,0,0,1,.89-2.33h0a1.76,1.76,0,0,1,2.33.89h0a1.78,1.78,0,0,1-.89,2.33h0a1.86,1.86,0,0,1-.72.15h0A1.76,1.76,0,0,1,637.78,456.09Zm11.29-5a1.76,1.76,0,0,1,.93-2.31h0a1.75,1.75,0,0,1,2.31.92h0a1.77,1.77,0,0,1-.92,2.32h0a1.9,1.9,0,0,1-.7.14h0A1.77,1.77,0,0,1,649.07,451.12Zm261.34-2.36a1.75,1.75,0,0,1,1.07-2.25h0a1.76,1.76,0,0,1,2.25,1.07h0a1.77,1.77,0,0,1-1.07,2.25h0a1.78,1.78,0,0,1-.59.1h0A1.75,1.75,0,0,1,910.41,448.76Zm-250-2.42a1.76,1.76,0,0,1,1-2.3h0a1.75,1.75,0,0,1,2.29,1h0a1.77,1.77,0,0,1-1,2.3h0a1.77,1.77,0,0,1-.67.13h0A1.75,1.75,0,0,1,660.45,446.34Zm11.45-4.6a1.76,1.76,0,0,1,1-2.28h0a1.76,1.76,0,0,1,2.27,1h0a1.76,1.76,0,0,1-1,2.29h0a1.76,1.76,0,0,1-.64.11h0A1.76,1.76,0,0,1,671.9,441.74Zm233.21-3.62a1.77,1.77,0,0,1,.5-2.44h0a1.76,1.76,0,0,1,2.44.5h0a1.76,1.76,0,0,1-.49,2.44h0a1.74,1.74,0,0,1-1,.29h0A1.75,1.75,0,0,1,905.11,438.12Zm-221.68-.77a1.77,1.77,0,0,1,1.05-2.27h0a1.77,1.77,0,0,1,2.26,1.05h0a1.75,1.75,0,0,1-1,2.26h0a1.59,1.59,0,0,1-.6.11h0A1.77,1.77,0,0,1,683.43,437.35ZM695,433.16a1.76,1.76,0,0,1,1.09-2.24h0a1.76,1.76,0,0,1,2.24,1.09h0a1.76,1.76,0,0,1-1.09,2.24h0a1.73,1.73,0,0,1-.58.1h0A1.76,1.76,0,0,1,695,433.16Zm11.69-4a1.76,1.76,0,0,1,1.13-2.22h0a1.77,1.77,0,0,1,2.22,1.13h0a1.76,1.76,0,0,1-1.13,2.22h0a1.76,1.76,0,0,1-.55.09h0A1.76,1.76,0,0,1,706.73,429.2Zm190.68-.12h0a1.76,1.76,0,0,1-.09-2.49h0a1.76,1.76,0,0,1,2.49-.09h0a1.77,1.77,0,0,1,.09,2.49h0a1.77,1.77,0,0,1-1.29.56h0A1.74,1.74,0,0,1,897.41,429.08Zm-178.92-3.61a1.76,1.76,0,0,1,1.18-2.19h0a1.76,1.76,0,0,1,2.2,1.17h0a1.77,1.77,0,0,1-1.18,2.2h0a1.81,1.81,0,0,1-.51.08h0A1.76,1.76,0,0,1,718.49,425.47ZM730.33,422a1.76,1.76,0,0,1,1.23-2.17h0a1.76,1.76,0,0,1,2.17,1.23h0a1.76,1.76,0,0,1-1.23,2.17h0a1.84,1.84,0,0,1-.47.06h0A1.77,1.77,0,0,1,730.33,422Zm157.51-.07a1.76,1.76,0,0,1-.6-2.42h0a1.77,1.77,0,0,1,2.42-.6h0a1.77,1.77,0,0,1,.6,2.42h0a1.76,1.76,0,0,1-1.51.85h0A1.76,1.76,0,0,1,887.84,421.93ZM742.25,418.8a1.76,1.76,0,0,1,1.28-2.14h0a1.76,1.76,0,0,1,2.14,1.28h0a1.77,1.77,0,0,1-1.28,2.14h0a2.1,2.1,0,0,1-.43.05h0A1.76,1.76,0,0,1,742.25,418.8Zm12-2.91a1.78,1.78,0,0,1,1.34-2.11h0a1.76,1.76,0,0,1,2.1,1.34h0a1.75,1.75,0,0,1-1.33,2.1h0a1.74,1.74,0,0,1-.39,0h0A1.77,1.77,0,0,1,754.24,415.89Zm122.8.72a1.76,1.76,0,0,1-1-2.29h0a1.76,1.76,0,0,1,2.29-1h0a1.77,1.77,0,0,1,1,2.29h0a1.76,1.76,0,0,1-1.64,1.11h0A1.71,1.71,0,0,1,877,416.61Zm-110.73-3.3a1.76,1.76,0,0,1,1.39-2.07h0a1.76,1.76,0,0,1,2.07,1.39h0a1.76,1.76,0,0,1-1.39,2.07h0l-.34,0h0A1.76,1.76,0,0,1,766.31,413.31Zm99.22-.44a1.77,1.77,0,0,1-1.27-2.15h0a1.77,1.77,0,0,1,2.15-1.26h0a1.78,1.78,0,0,1,1.27,2.15h0a1.78,1.78,0,0,1-1.71,1.32h0A1.67,1.67,0,0,1,865.53,412.87Zm-87.09-1.79a1.77,1.77,0,0,1,1.46-2h0a1.78,1.78,0,0,1,2,1.46h0a1.76,1.76,0,0,1-1.46,2h0a1.43,1.43,0,0,1-.29,0h0A1.78,1.78,0,0,1,778.44,411.08Zm12.21-1.84a1.76,1.76,0,0,1,1.52-2h0a1.76,1.76,0,0,1,2,1.53h0a1.75,1.75,0,0,1-1.52,2h-.23A1.76,1.76,0,0,1,790.65,409.24Zm63,1.19h0a1.76,1.76,0,0,1-1.47-2h0a1.75,1.75,0,0,1,2-1.46h0a1.77,1.77,0,0,1,1.47,2h0a1.77,1.77,0,0,1-1.74,1.49h0Zm-50.71-2.57a1.76,1.76,0,0,1,1.6-1.91h0a1.78,1.78,0,0,1,1.91,1.61h0a1.75,1.75,0,0,1-1.6,1.9h-.16A1.76,1.76,0,0,1,802.91,407.86ZM841.5,409a1.75,1.75,0,0,1-1.62-1.89h0a1.75,1.75,0,0,1,1.89-1.62h0a1.75,1.75,0,0,1,1.62,1.89h0a1.76,1.76,0,0,1-1.75,1.63h-.14Zm-26.28-2a1.77,1.77,0,0,1,1.69-1.84h0a1.76,1.76,0,0,1,1.83,1.69h0a1.77,1.77,0,0,1-1.69,1.84H817A1.76,1.76,0,0,1,815.22,407Zm12.33-.28a1.77,1.77,0,0,1,1.79-1.74h0a1.75,1.75,0,0,1,1.73,1.79h0a1.75,1.75,0,0,1-1.78,1.73h0A1.78,1.78,0,0,1,827.55,406.71Z"/><path class="cls-5" d="M408.53,816.62a168.19,168.19,0,0,1-33-3C352.2,809,335.87,799,327,784s-9.84-34.11-2.78-56.8C331,705.29,344.93,681,365.58,655,408,601.52,474.14,546.71,551.72,500.67l.22.38c-77.53,46-143.6,100.78-186,154.21-20.61,26-34.51,50.21-41.31,72-7,22.57-6.1,41.56,2.73,56.45s25.07,24.79,48.25,29.44c22.42,4.49,50.35,3.91,83-1.75,67.23-11.63,146.95-43.38,224.49-89.4l.22.38c-77.58,46-157.36,77.81-224.63,89.46A297,297,0,0,1,408.53,816.62Z"/><circle class="cls-1" cx="369.92" cy="268.36" r="7.36"/><circle class="cls-1" cx="865.17" cy="267.85" r="7.36" transform="translate(462.2 1078.94) rotate(-80.78)"/><path class="cls-1" d="M215.36,738.67a7.87,7.87,0,1,1,7.87-7.86A7.87,7.87,0,0,1,215.36,738.67Zm0-14.73a6.87,6.87,0,1,0,6.87,6.87A6.87,6.87,0,0,0,215.36,723.94Z"/><circle class="cls-1" cx="617.69" cy="1028.25" r="7.36"/><path class="cls-1" d="M645.43,1027.44a1.54,1.54,0,1,1-1.54-1.54A1.54,1.54,0,0,1,645.43,1027.44Z"/><circle class="cls-1" cx="691.96" cy="1022.06" r="3.27"/><path class="cls-1" d="M728,1014.1a1.54,1.54,0,1,1-1.54-1.54A1.54,1.54,0,0,1,728,1014.1Z"/><circle class="cls-1" cx="707.18" cy="1018.99" r="1.54"/><path class="cls-1" d="M1021,738.42a3.27,3.27,0,1,1-3.26-3.27A3.26,3.26,0,0,1,1021,738.42Z"/><circle class="cls-1" cx="979.87" cy="822.05" r="7.36"/><path class="cls-1" d="M971.36,837.8a1.54,1.54,0,1,1-1.53-1.53A1.53,1.53,0,0,1,971.36,837.8Z"/><circle class="cls-1" cx="985.94" cy="810.87" r="1.54"/><circle class="cls-1" cx="996.94" cy="789.25" r="1.54"/><circle class="cls-1" cx="546.15" cy="718.47" r="1.54"/><circle class="cls-1" cx="613.39" cy="759.38" r="1.54"/><circle class="cls-1" cx="851.56" cy="648.52" r="7.36"/><path class="cls-1" d="M397.53,396.49a3.27,3.27,0,1,1-3.27-3.27A3.27,3.27,0,0,1,397.53,396.49Z"/><circle class="cls-1" cx="363.44" cy="403.39" r="1.54"/><circle class="cls-1" cx="347.95" cy="412.22" r="3.27"/><path class="cls-1" d="M339,423.1a1.54,1.54,0,1,1-1.53-1.54A1.53,1.53,0,0,1,339,423.1Z"/><circle class="cls-1" cx="333.74" cy="429.5" r="1.54"/><path class="cls-1" d="M516.35,416.54a1.54,1.54,0,1,1-1.54-1.54A1.54,1.54,0,0,1,516.35,416.54Z"/><path class="cls-1" d="M566.7,436a1.54,1.54,0,1,1-1.54-1.54A1.53,1.53,0,0,1,566.7,436Z"/><path class="cls-1" d="M457.18,400.28a3.27,3.27,0,1,1-3.27-3.27A3.28,3.28,0,0,1,457.18,400.28Z"/><circle class="cls-1" cx="484.25" cy="407.19" r="1.54"/></g></svg>